External Loads File
version=1
nRows=63
nColumns=13
Range=5.000000e-03-10 seconds
endheader
time 	forceRightX 	forceRightY 	forceRightZ 	pointRightX 	pointRightY 	pointRightZ 	forceLeftX 	forceLeftY 	forceLeftZ 	pointLeftX 	pointLeftY 	pointLeftZ 		
0.005000 1.136597 227.820506 -0.000000 0.398144 0.362521 -0.101100 71.060282 269.497099 -0.000000 0.085775 0.277912 -0.339975
0.010000 0.779001 228.004554 -0.000000 0.398125 0.362610 -0.101081 69.482116 268.936163 -0.000000 0.085808 0.277829 -0.339987
0.015000 0.420832 228.120915 -0.000000 0.398120 0.362674 -0.101081 68.074550 268.339749 -0.000000 0.085842 0.277751 -0.339973
0.020000 0.002333 228.129097 -0.000000 0.398095 0.362747 -0.100944 66.880935 267.749770 -0.000000 0.085865 0.277626 -0.339973
0.025000 -0.539018 228.019994 -0.000000 0.398152 0.363167 -0.101136 65.808356 267.198932 -0.000000 0.085869 0.277649 -0.340051
0.030000 -0.884275 227.812858 -0.000000 0.398163 0.363214 -0.101133 65.117515 266.602724 -0.000000 0.085927 0.277585 -0.340102
0.035000 -1.236310 227.538130 -0.000000 0.398160 0.363320 -0.101139 64.459918 266.034517 -0.000000 0.085954 0.277499 -0.340141
0.040000 -1.512057 227.224318 -0.000000 0.398150 0.363403 -0.101168 63.896846 265.501327 -0.000000 0.085972 0.277418 -0.340163
0.045000 -1.691962 226.892665 -0.000000 0.398140 0.363490 -0.101171 63.494791 265.045690 -0.000000 0.085996 0.277386 -0.340165
0.050000 -1.823974 226.563049 -0.000000 0.398135 0.363568 -0.101179 63.277533 264.729891 -0.000000 0.086020 0.277305 -0.340176
0.055000 -1.856491 226.263359 -0.000000 0.398101 0.363650 -0.101192 63.364678 264.562341 -0.000000 0.086015 0.277268 -0.340191
0.060000 -1.831408 226.026885 -0.000000 0.398091 0.363712 -0.101198 63.709661 264.542666 -0.000000 0.086032 0.277219 -0.340198
0.065000 -1.789749 225.883770 -0.000000 0.398071 0.363786 -0.101194 64.199578 264.645643 -0.000000 0.086037 0.277152 -0.340202
0.070000 -1.699349 225.849364 -0.000000 0.398052 0.363852 -0.101190 64.759932 264.808567 -0.000000 0.086046 0.277112 -0.340211
0.075000 -1.568690 225.913163 -0.000000 0.398013 0.363889 -0.101202 65.283742 264.973146 -0.000000 0.086033 0.277095 -0.340187
0.080000 -1.464909 226.043743 -0.000000 0.397989 0.363935 -0.101182 65.671016 265.117510 -0.000000 0.086019 0.277072 -0.340191
0.085000 -1.356774 226.211045 -0.000000 0.397959 0.363959 -0.101175 66.004106 265.232557 -0.000000 0.086027 0.277069 -0.340205
0.090000 -1.251545 226.399240 -0.000000 0.397929 0.363981 -0.101183 66.313560 265.347219 -0.000000 0.086022 0.277031 -0.340195
0.095000 -1.060858 226.598937 -0.000000 0.397912 0.364002 -0.101174 66.676896 265.449336 -0.000000 0.086014 0.277034 -0.340213
0.100000 -0.823742 226.793985 -0.000000 0.397895 0.364015 -0.101171 66.976916 265.529563 -0.000000 0.086002 0.277027 -0.340214
0.105000 -0.559128 226.967243 -0.000000 0.397877 0.364017 -0.101185 67.139228 265.559950 -0.000000 0.085987 0.277029 -0.340222
0.110000 -0.329792 227.106251 -0.000000 0.397853 0.364028 -0.101186 67.100276 265.544811 -0.000000 0.085985 0.277027 -0.340213
0.115000 -0.140862 227.195103 -0.000000 0.397843 0.364029 -0.101182 66.938157 265.496394 -0.000000 0.085992 0.277039 -0.340232
0.120000 -0.055509 227.211190 -0.000000 0.397823 0.364026 -0.101164 66.719135 265.458774 -0.000000 0.085972 0.277021 -0.340224
0.125000 -0.086486 227.139941 -0.000000 0.397821 0.364042 -0.101159 66.565301 265.463845 -0.000000 0.085975 0.277014 -0.340214
0.130000 -0.197034 226.987928 -0.000000 0.397807 0.364043 -0.101172 66.584677 265.518364 -0.000000 0.085982 0.277029 -0.340215
0.135000 -0.406616 226.777875 -0.000000 0.397793 0.364050 -0.101163 66.713544 265.628439 -0.000000 0.085994 0.276997 -0.340225
0.140000 -0.583211 226.535148 -0.000000 0.397774 0.364056 -0.101150 66.962202 265.739908 -0.000000 0.086000 0.277000 -0.340225
0.145000 -0.676433 226.283501 -0.000000 0.397768 0.364063 -0.101160 67.172416 265.811267 -0.000000 0.086015 0.277000 -0.340226
0.150000 -0.627324 226.048558 -0.000000 0.397773 0.364069 -0.101182 67.201603 265.799893 -0.000000 0.086024 0.276987 -0.340224
0.155000 -0.400667 225.852886 -0.000000 0.397776 0.364071 -0.101193 66.995315 265.688186 -0.000000 0.086032 0.276978 -0.340216
0.160000 -0.024734 225.703180 -0.000000 0.397790 0.364074 -0.101178 66.590565 265.498885 -0.000000 0.086037 0.276968 -0.340222
0.165000 0.452585 225.585085 -0.000000 0.397804 0.364074 -0.101191 66.113105 265.268237 -0.000000 0.086050 0.276982 -0.340238
0.170000 0.914758 225.472833 -0.000000 0.397822 0.364082 -0.101204 65.614355 265.042285 -0.000000 0.086044 0.276964 -0.340223
0.175000 1.316391 225.346359 -0.000000 0.397858 0.364095 -0.101203 65.152447 264.827156 -0.000000 0.086052 0.276953 -0.340244
0.180000 1.635490 225.201743 -0.000000 0.397891 0.364101 -0.101211 64.729246 264.610922 -0.000000 0.086048 0.276975 -0.340228
0.185000 1.810421 225.047360 -0.000000 0.397931 0.364113 -0.101192 64.277262 264.401384 -0.000000 0.086048 0.276984 -0.340234
0.190000 1.850887 224.895410 -0.000000 0.397971 0.364116 -0.101220 63.841068 264.209064 -0.000000 0.086039 0.276972 -0.340218
0.195000 1.774950 224.760582 -0.000000 0.398011 0.364148 -0.101224 63.490852 264.058898 -0.000000 0.086043 0.276967 -0.340222
0.200000 1.626217 224.658167 -0.000000 0.398031 0.364179 -0.101234 63.298172 263.967365 -0.000000 0.086038 0.276934 -0.340224
0.205000 1.462152 224.599483 -0.000000 0.398054 0.364220 -0.101223 63.319553 263.940752 -0.000000 0.086044 0.276894 -0.340213
0.210000 1.315705 224.584831 -0.000000 0.398072 0.364271 -0.101234 63.576954 263.985418 -0.000000 0.086050 0.276846 -0.340201
0.215000 1.209572 224.602254 -0.000000 0.398090 0.364338 -0.101236 64.051350 264.091770 -0.000000 0.086055 0.276813 -0.340199
0.220000 1.097305 224.641320 -0.000000 0.398101 0.364418 -0.101245 64.576147 264.244724 -0.000000 0.086058 0.276726 -0.340203
0.225000 1.047823 224.701161 -0.000000 0.398101 0.364515 -0.101276 65.082126 264.383587 -0.000000 0.086068 0.276689 -0.340195
0.230000 0.993003 224.780029 -0.000000 0.398085 0.364619 -0.101263 65.380152 264.494744 -0.000000 0.086088 0.276587 -0.340210
0.235000 0.978137 224.862525 -0.000000 0.398077 0.364755 -0.101269 65.521914 264.555348 -0.000000 0.086086 0.276507 -0.340196
0.240000 0.964606 224.926971 -0.000000 0.398053 0.364882 -0.101263 65.556038 264.588308 -0.000000 0.086099 0.276400 -0.340200
0.245000 0.933199 224.955186 -0.000000 0.398029 0.364994 -0.101262 65.564196 264.609912 -0.000000 0.086113 0.276266 -0.340196
0.250000 0.890096 224.938222 -0.000000 0.398003 0.365095 -0.101232 65.596890 264.613818 -0.000000 0.086118 0.276162 -0.340176
0.255000 0.778351 224.881458 -0.000000 0.397964 0.365219 -0.101207 65.562031 264.605732 -0.000000 0.086148 0.276058 -0.340195
0.260000 0.626479 224.800649 -0.000000 0.397934 0.365334 -0.101226 65.445266 264.574089 -0.000000 0.086171 0.275926 -0.340179
0.265000 0.437001 224.711545 -0.000000 0.397914 0.365494 -0.101229 65.245338 264.530359 -0.000000 0.086180 0.275783 -0.340162
0.270000 0.262231 224.623312 -0.000000 0.397886 0.365617 -0.101256 65.080702 264.485511 -0.000000 0.086206 0.275625 -0.340177
0.275000 0.115426 224.538345 -0.000000 0.397878 0.365748 -0.101282 65.034128 264.462697 -0.000000 0.086231 0.275512 -0.340168
0.280000 -0.047805 224.453111 -0.000000 0.397855 0.365884 -0.101285 65.075803 264.487756 -0.000000 0.086260 0.275396 -0.340168
0.285000 -0.214140 224.362007 -0.000000 0.397839 0.366006 -0.101291 65.179803 264.552029 -0.000000 0.086297 0.275282 -0.340190
0.290000 -0.395312 224.262670 -0.000000 0.397821 0.366125 -0.101297 65.241522 264.638737 -0.000000 0.086323 0.275144 -0.340193
0.295000 -0.546716 224.158888 -0.000000 0.397814 0.366241 -0.101288 65.204617 264.700742 -0.000000 0.086349 0.275029 -0.340188
0.300000 -0.655282 224.060289 -0.000000 0.397796 0.366343 -0.101295 64.985451 264.695687 -0.000000 0.086373 0.274932 -0.340203
0.305000 -0.699850 223.974667 -0.000000 0.397779 0.366444 -0.101289 64.560791 264.594626 -0.000000 0.086371 0.274870 -0.340172
0.310000 -0.702677 223.898776 -0.000000 0.397773 0.366520 -0.101284 63.965354 264.413816 -0.000000 0.086390 0.274783 -0.340160
0.315000 -0.651528 223.822207 -0.000000 0.397774 0.366581 -0.101278 63.385099 264.192542 -0.000000 0.086406 0.274706 -0.340167
